PathFileType	4	(X/Y/Z)	E:\Marcel_BSc\Ayumi_22_01_2025\22-01-2025\sumo_dl_3.trc
DataRate	CameraRate	NumFrames	NumMarkers	Units	OrigDataRate	OrigDataStartFrame	OrigNumFrames
200.0	200.0	6	47	mm	200.0	1753	2336	
Frame#	Time	FHD			LBHD			RBHD			RBAR			LBAR			RSACR			LSACR			USACR			C7			CLAV			T10			RSHO			LSHO			LTHI1			LTHI3			LTHI2			LTIB1			LTIB2			LTIB3			LMMAL			LLMAL			LHEE			LMT1			LMT5			LMT3			RTHI1			RTHI2			RTHI3			RTIB1			RTIB3			RTIB2			RLMAL			RMMAL			RHEE			RMT5			RMT1			RMT3			LDUPA			LMUPA			LUUPA			LRAD			RUL			RUFIN			RRAD			RMUPA			RDUPA			RUUPA			
		X1	Y1	Z1	X2	Y2	Z2	X3	Y3	Z3	X4	Y4	Z4	X5	Y5	Z5	X6	Y6	Z6	X7	Y7	Z7	X8	Y8	Z8	X9	Y9	Z9	X10	Y10	Z10	X11	Y11	Z11	X12	Y12	Z12	X13	Y13	Z13	X14	Y14	Z14	X15	Y15	Z15	X16	Y16	Z16	X17	Y17	Z17	X18	Y18	Z18	X19	Y19	Z19	X20	Y20	Z20	X21	Y21	Z21	X22	Y22	Z22	X23	Y23	Z23	X24	Y24	Z24	X25	Y25	Z25	X26	Y26	Z26	X27	Y27	Z27	X28	Y28	Z28	X29	Y29	Z29	X30	Y30	Z30	X31	Y31	Z31	X32	Y32	Z32	X33	Y33	Z33	X34	Y34	Z34	X35	Y35	Z35	X36	Y36	Z36	X37	Y37	Z37	X38	Y38	Z38	X39	Y39	Z39	X40	Y40	Z40	X41	Y41	Z41	X42	Y42	Z42	X43	Y43	Z43	X44	Y44	Z44	X45	Y45	Z45	X46	Y46	Z46	X47	Y47	Z47	
1753	8.755	-85.031013	1128.7587	-1023.2845	-68.729553	1117.1138	-961.25439	-39.930389	1097.672	-1090.4097	242.41182	289.95938	-2125.1658	228.53206	309.33307	95.856544	511.38681	763.07086	-1054.9584	511.62888	766.47571	-983.20251	502.59595	773.51868	-1018.8157	124.53127	996.11212	-1004.4338	99.033363	845.16278	-1012.1572	365.94904	888.72498	-1024.4698	70.164268	861.96686	-1159.407	102.37824	866.42621	-844.0108	406.67966	534.23541	-694.09039	373.40842	482.90561	-669.71429	349.83429	526.73145	-660.00104	305.37982	246.05003	-536.40424	345.15073	237.5594	-565.48541	324.33206	184.28027	-534.92273	275.87064	72.011276	-583.9339	331.04468	74.551125	-534.41785	341.5759	34.438869	-586.66382	182.47545	44.934563	-471.79898	246.26167	24.685171	-422.67981	201.05	40.073856	-441.89008	414.07214	521.63208	-1333.1433	360.56573	519.03851	-1372.4274	378.02588	473.10635	-1358.3538	316.58737	272.65607	-1469.536	331.9975	210.46959	-1457.8387	355.77243	268.79504	-1439.2678	345.75604	72.664528	-1446.045	272.78592	70.881386	-1411.0436	351.97131	31.581812	-1388.317	273.25699	25.396864	-1561.3777	214.04785	35.267082	-1530.0525	235.61823	32.951763	-1552.0031	247.8936	711.71167	-783.60632	199.51932	701.57751	-788.83807	186.38693	761.73431	-792.53369	254.5495	380.37378	-761.15881	193.28305	375.78354	-1295.4287	192.29076	292.34406	-1236.1282	191.85463	367.7829	-1233.032	145.42802	773.78241	-1236.8088	163.29041	715.25635	-1250.9758	191.34749	789.3631	-1247.512
1754	8.76	-85.366508	1127.4408	-1023.3936	-69.15081	1116.0431	-961.25433	-40.4291	1096.7427	-1090.2111	242.47519	289.05014	-2125.1472	228.61798	308.53174	95.878716	511.35117	762.70459	-1055.064	511.47211	766.21783	-983.21747	502.72382	772.89056	-1018.9689	123.92211	995.1582	-1004.4304	98.891724	844.14331	-1012.2164	365.73932	888.20782	-1024.319	69.889893	860.91003	-1159.4208	102.16805	865.33264	-844.14117	406.69925	534.04962	-694.15985	373.42902	482.79309	-669.74561	349.89883	526.61212	-660.03137	304.81528	245.26671	-537.42371	345.07578	237.5983	-565.47028	324.89093	183.73595	-535.64679	275.83887	72.020073	-583.92194	331.00348	74.579597	-534.40009	341.59979	34.439713	-586.65625	182.48332	44.904922	-471.85309	246.25201	24.656616	-422.66974	201.04524	40.08091	-441.89114	413.93018	521.40778	-1333.2142	360.38144	518.87848	-1372.5105	377.82242	472.91412	-1358.4662	316.44055	272.55719	-1469.5701	331.939	210.45412	-1457.877	355.61832	268.75134	-1439.3402	345.73688	72.690376	-1446.0436	272.83524	70.842293	-1411.0535	351.97238	31.591579	-1388.3173	273.24377	25.403658	-1561.3711	214.03999	35.260742	-1530.0498	235.66252	32.989403	-1551.9954	247.78134	710.81116	-783.58081	199.53943	700.71222	-788.74042	186.28406	760.85944	-792.42981	254.67688	379.49292	-761.15015	193.72667	375.1181	-1295.0248	192.35851	291.37704	-1236.1366	191.84576	366.83371	-1233.0126	145.03398	772.89587	-1236.7482	162.94858	714.38239	-1250.949	191.01762	788.38593	-1247.5415
1755	8.765	-85.832031	1126.5638	-1023.2809	-69.507103	1114.8605	-961.28381	-40.833733	1095.5836	-1090.287	242.54433	288.08582	-2125.1226	228.73433	307.80466	95.880226	511.27856	762.3905	-1055.163	511.50323	765.7536	-983.35315	502.63	772.4776	-1019.0691	123.76042	994.12445	-1004.4849	98.730408	843.20856	-1012.1199	365.56503	887.54993	-1024.4882	69.617859	860.00897	-1159.3082	102.07826	864.44342	-844.15698	406.9136	533.91229	-694.17151	373.44196	482.64703	-669.78046	350.00784	526.49097	-660.05017	305.2338	245.95671	-536.396	345.0033	237.58232	-565.427	323.70181	183.91429	-535.66626	275.80853	72.011848	-583.9292	330.96072	74.601227	-534.40875	341.57056	34.4547	-586.65741	182.48137	44.972034	-471.84329	246.2375	24.6499	-422.66937	201.0488	40.079288	-441.8689	413.77887	521.16937	-1333.3633	360.17679	518.68903	-1372.5793	377.56345	472.74979	-1358.4988	316.34879	272.4053	-1469.6362	331.86649	210.3918	-1457.939	355.49615	268.75851	-1439.3856	345.75668	72.677147	-1446.0387	272.78137	70.895821	-1411.0662	351.98911	31.592503	-1388.335	273.22989	25.374641	-1561.3781	214.07039	35.281586	-1530.0432	235.6808	33.007133	-1551.9918	247.65079	710.05389	-783.53845	199.32503	699.81458	-788.71167	186.08145	759.97278	-792.41174	255.12474	378.71442	-761.18561	193.24968	373.99545	-1295.35	192.39816	290.40588	-1236.1531	191.93925	365.92865	-1232.9912	144.67967	771.91254	-1236.7053	162.61157	713.41364	-1250.9412	190.13045	788.15137	-1247.9591
1756	8.77	-86.161743	1125.2085	-1023.3923	-69.889236	1113.824	-961.16626	-41.15028	1094.2983	-1090.4335	242.59721	287.12784	-2125.0967	228.827	306.97726	95.895355	511.21014	762.03943	-1055.2664	511.43158	765.37122	-983.48016	502.45255	772.16003	-1019.145	123.31152	993.17505	-1004.4727	98.574234	842.19818	-1012.1569	365.30612	887.06036	-1024.6392	69.286339	858.88245	-1159.2159	101.85653	863.51025	-844.21759	406.93896	533.65582	-694.23541	373.45041	482.5127	-669.82794	350.08606	526.38129	-660.11432	305.18271	245.93484	-536.36407	344.95386	237.55113	-565.41809	323.31842	183.72356	-536.03888	275.79651	72.003105	-583.9538	330.94339	74.617935	-534.41223	341.55008	34.478699	-586.64264	182.41679	44.980839	-471.83942	246.26096	24.618261	-422.64401	201.04803	40.08173	-441.86136	413.51529	521.01941	-1333.5229	359.93182	518.49768	-1372.6685	377.30389	472.56021	-1358.6157	316.16754	272.30893	-1469.6907	331.797	210.33571	-1457.9982	355.3898	268.71448	-1439.4998	345.76038	72.66111	-1446.0536	272.79257	70.837112	-1411.0579	351.99921	31.585342	-1388.3423	273.21466	25.412191	-1561.38	214.05771	35.26923	-1530.0447	235.67842	32.992046	-1551.9893	247.4292	709.07391	-783.54498	199.16589	698.97076	-788.65887	185.90895	759.03119	-792.40479	254.61166	377.77243	-761.11475	193.17725	373.0939	-1295.3331	192.38869	290.24774	-1235.522	191.95195	364.9613	-1232.9751	144.29973	770.98883	-1236.6582	162.24852	712.40918	-1250.8954	190.17899	786.6048	-1247.5659
1757	8.775	-86.541862	1124.1393	-1023.3178	-70.288834	1112.7103	-961.14117	-41.690834	1093.4474	-1090.1707	242.69666	286.19754	-2125.0964	228.97354	306.24326	95.904968	511.14453	761.72986	-1055.3756	511.31409	765.13501	-983.57056	502.45078	771.77478	-1019.2857	122.97172	992.3429	-1004.5031	98.406342	841.21448	-1012.0768	364.96417	886.60828	-1024.8119	68.982994	857.9115	-1159.1195	101.54073	862.21558	-843.58746	407.05792	533.59692	-694.30597	373.50687	482.39572	-669.88379	350.19687	526.28033	-660.16534	305.15799	245.91505	-536.36646	345.29904	237.73801	-564.90607	323.52603	183.63213	-536.24261	275.76346	72.009964	-583.95721	330.88345	74.612381	-534.42566	341.54065	34.506542	-586.62805	182.62729	45.254341	-471.98492	246.27869	24.552921	-422.60605	201.04659	40.085751	-441.85059	413.32324	520.77924	-1333.7592	359.72791	518.31958	-1372.7791	377.07233	472.37448	-1358.7816	316.05789	272.19501	-1469.7577	331.73404	210.26169	-1458.0514	355.23303	268.66629	-1439.6151	345.70029	72.678978	-1446.0459	272.77896	70.856735	-1411.0845	351.84018	31.564344	-1387.8168	273.20325	25.42872	-1561.3938	214.06134	35.271614	-1530.0408	235.67513	32.995831	-1552.0002	247.21701	708.27289	-783.54517	198.92497	698.00336	-788.65466	185.59163	758.16895	-792.44141	255.20366	376.96881	-761.21057	193.31255	371.93118	-1295.4039	192.5121	288.82416	-1235.8877	191.93642	364.06845	-1232.9398	143.98825	769.88916	-1236.6298	161.84073	711.42542	-1250.851	189.79442	785.63507	-1247.5675
1758	8.78	-87.045815	1123.1442	-1023.2628	-70.755318	1111.6969	-961.1524	-42.110615	1092.3033	-1090.146	242.77008	285.22046	-2125.0464	229.06873	305.45059	95.941498	511.10965	761.39594	-1055.4756	511.32828	764.8139	-983.72382	502.5571	771.16302	-1019.1914	122.54403	991.38519	-1004.5049	98.212898	840.29706	-1012.0149	364.76166	886.08661	-1024.7806	68.684288	856.79639	-1158.9823	101.26466	861.36523	-843.50983	407.15799	533.50311	-694.37854	373.5509	482.27356	-669.9281	350.22876	526.19934	-660.22809	305.11429	245.88556	-536.37573	344.84647	237.52428	-565.37915	322.6069	183.35608	-536.8067	275.75296	72.016853	-583.93951	330.85068	74.64592	-534.43921	341.53006	34.525429	-586.62207	182.69685	45.458302	-472.07565	246.2103	24.458569	-422.59644	201.04797	40.083664	-441.8504	413.10663	520.55707	-1333.9817	359.50217	518.20422	-1372.9308	376.89273	472.1879	-1359.0375	315.94272	272.11627	-1469.8088	331.67288	210.22774	-1458.1334	355.15186	268.6326	-1439.7351	345.71558	72.669579	-1446.0632	272.82867	70.804283	-1411.0337	351.82959	31.56447	-1387.8119	273.18631	25.439695	-1561.4082	214.05516	35.260918	-1530.0477	235.617	32.933762	-1552.0146	246.96684	707.30347	-783.59216	198.74319	697.1936	-788.65283	185.4276	757.26562	-792.38141	254.5408	376.04471	-761.11719	193.1057	371.3233	-1295.2303	192.55443	287.81128	-1235.9071	191.99585	363.07571	-1232.9171	143.5291	769.00507	-1236.4979	161.45088	710.45685	-1250.7792	189.384	784.59534	-1247.6809
